<?xml version="1.0" encoding="utf-8"?>
<!-- Generator: Adobe Illustrator 16.0.0, SVG Export Plug-In . SVG Version: 6.00 Build 0)  -->
<!DOCTYPE svg PUBLIC "-//W3C//DTD SVG 1.1//EN" "http://www.w3.org/Graphics/SVG/1.1/DTD/svg11.dtd">
<svg version="1.1" id="Layer_1" xmlns="http://www.w3.org/2000/svg" xmlns:xlink="http://www.w3.org/1999/xlink" x="0px" y="0px"
	 width="512px" height="512px" viewBox="0 0 512 512" enable-background="new 0 0 512 512" xml:space="preserve">
<g id="Layer_1_1_">
	<polygon fill="none" points="84.956,252.037 84.956,402.793 170.353,317.396 	"/>
	<polygon fill="none" points="110.353,426.834 400.598,426.834 255.94,281.956 	"/>
	<polygon fill="none" points="195.904,292.592 255.947,232.676 316.446,292.852 415.473,216.885 415.784,216.822 256.151,94.881
		96.292,216.634 96.355,216.647 	"/>
	<polygon fill="none" points="427.043,403.439 427.043,252.037 341.254,317.65 	"/>
	<polygon fill="#DF4726" points="256.151,50.137 50,207.382 50,461.863 50.354,461.863 462,461.863 462,207.382 	" />
	<polygon fill="#FFFFFF" 	points="256.151,94.881 415.784,216.822 415.473,216.885 316.446,292.852 255.947,232.676 195.904,292.592
		96.355,216.647 96.292,216.634 	"/>
	<polygon fill="#FFFFFF" points="84.956,252.037 170.353,317.396 84.956,402.793 	"/>
	<polygon fill="#FFFFFF" points="110.353,426.834 255.94,281.956 400.598,426.834 	"/>
	<polygon fill="#FFFFFF" points="427.043,403.439 341.254,317.65 427.043,252.037 	"/>
</g>
<g id="Layer_2">
</g>
</svg>
