<?xml version="1.0"?>
<svg width="74.937988" height="31.190714000000003" xmlns="http://www.w3.org/2000/svg" xmlns:svg="http://www.w3.org/2000/svg">

 <metadata id="metadata3411">image/svg+xml</metadata>
 <g>
  <title>Layer 1</title>
  <g transform="rotate(0.8931764960289001 35.97764587402344,16.54938888549819) " id="layer1">
   <path fill="#000000" fill-rule="nonzero" id="path598" d="m27.583282,0.3c-3.647491,2.984985 -6.299988,8.125 -6.299988,8.125l-2.818756,7.79248l-12.601257,3.647522c0,0 -10.07251,8.549988 -3.813751,10.11499c11.274994,2.818787 26.19751,0.828735 26.19751,0.828735l15.419983,-1.98999c0,0 -3.647491,-2.154968 14.09375,1.492493c5.555023,1.142517 14.497498,-0.315002 16.580017,-3.647461c0.828735,-1.326294 1.82373,-2.321289 -4.807495,-4.477539c-6.632507,-2.154968 -11.441254,-0.331238 -11.441254,-0.331238l0.497498,-8.621215l-6.632507,-6.30127l-12.767487,-5.96875l-11.606262,-0.663757"/>
   <path fill="#ffffff" fill-rule="nonzero" id="path600" d="m28.08078,2.621228l7.130005,0.497498l11.606262,3.813721l-11.606262,-2.818726l-7.130005,0.497497l6.632507,0.663758l9.119995,2.983765l-9.617493,-1.823792l-7.792511,0.331299l7.95874,1.327454l8.290009,1.98877l-8.953735,-0.828736l-9.285004,-0.16626l9.119995,1.327516l8.454987,2.983704l-9.284973,-1.82373l-9.94751,0.16626l9.449982,1.159973l7.793762,3.151305l-8.125,-1.99005l-10.704987,1.02002l0.093689,0.970031l10.611237,0.164978l12.932526,4.14502l9.119995,4.144958c0,0 0.584991,2.178772 8.621246,2.487488c8.622498,0.331299 10.279999,-0.662476 10.279999,-0.662476c0,0 -0.662506,-1.327515 -4.309998,-2.653748c-3.648743,-1.326233 -8.282501,-1.633728 -10.279999,-0.994995c-4.14502,1.326233 -6.467499,0.497498 -6.467499,0.497498l3.813751,-1.326233c0,0 -4.309998,-0.331299 -6.466248,-1.657532c5.471252,0.662537 7.296234,-0.663757 7.296234,-0.663757l0.993744,-6.299987l-6.133728,-4.642517l-13.762512,-6.467468l-9.451263,0.497497"/>
   <path fill="#ffffff" fill-rule="nonzero" id="path602" d="m20.619537,18.704967c-6.631256,-0.098694 -11.274994,2.154968 -11.274994,2.154968l-6.631256,3.813782c0,0 -2.653748,2.652466 -0.994995,3.647522c1.657501,0.994995 13.098755,2.15625 13.098755,2.15625l24.372498,-2.321289l7.95874,-0.994995l10.612488,2.486267l11.108765,-0.662537l2.321259,-1.658752l-9.782501,1.658752l-10.777496,-3.813721l-8.290009,0.994995l-9.948761,-0.331238c0,0 -12.459991,-1.26123 -13.92749,-3.316284c-0.828766,-1.161255 2.652496,-2.653748 2.652496,-2.653748c0,0 -3.937498,2.573792 0.994995,2.985046c5.96875,0.497498 10.943756,1.98999 10.943756,1.98999l13.429993,-0.830017l-3.149994,-1.326233l-6.632507,0.829956l-6.466248,-0.497498l-6.13501,-1.327454c0,0 10.445007,1.161255 13.263763,-0.331299l-12.268738,-1.159973l8.123749,-0.497498c0,0 -1.492523,-0.828735 -12.601257,-0.994995"/>
  </g>
 </g>
</svg>